<svg id="Calque_1" data-name="Calque 1" xmlns="http://www.w3.org/2000/svg" viewBox="0 0 300 300"><path d="M.71,157.46V142.59c1.11-7.78,1.68-15.68,3.42-23.32C21,45.45,82.51-2.71,158.32.53,209.12,2.7,248.77,26.54,277,69c13.77,20.68,20.69,43.79,23.7,68.23v25.67c-1.74,11.34-3.41,22.7-7.17,33.59-24.29,70.26-88,111-162.13,101.93-51.8-6.31-89.32-34.66-114.08-80.15C7.06,199.34,2.65,178.7.71,157.46ZM152,19.87C81,18.47,18.14,77,20.58,154.59c2.23,70.92,61.2,127.2,133.86,125.74,70.41-1.41,127.51-60.62,126.88-132.86C280.71,77.86,221.3,19.22,152,19.87Z"/><path d="M151.68,213.37q-40.18,0-80.36,0c-11.19,0-13.68-2.2-13.71-13.31q-.12-48.62,0-97.24c0-10.36,2.46-12.78,12.88-12.8q81.38-.14,162.75,0c9.37,0,12.31,2.93,12.34,12.09q.1,49.63,0,99.27c0,9.3-2.74,11.92-12.23,11.94-27.24.07-54.47,0-81.71,0ZM84.93,102.26c-.16,2.25,1,2.76,1.8,3.41,19.34,15.39,38.81,30.63,58,46.24,4.51,3.68,7.58,3,11.65-.32,10.66-8.62,21.56-16.93,32.38-25.35,10-7.81,20.09-15.61,30.87-24ZM80.3,202.55H220.7c.13-1.69-1-2.17-1.88-2.77-16.73-12.19-33.56-24.26-50.2-36.57-3.91-2.9-6.46-1.09-9.53,1.14-9,6.52-9.17,6.63-17.39.06-3.63-2.91-6.37-3-10.08-.18-12,9.1-24.26,17.89-36.38,26.86C90.63,194.5,86.14,198.06,80.3,202.55Zm153.75-50.77c0-13.06,0-26.12,0-39.18,0-1.49.56-3.59-1.35-4.09-1-.25-2.51.76-3.52,1.54q-25.38,19.64-50.68,39.36c-3,2.36-3.33,4.08.17,6.59,16.67,11.9,33.16,24.05,49.76,36.06,1.37,1,2.75,3,4.63,1.9,1.71-1,1-3.31,1-5C234.07,176.55,234,164.16,234.05,151.78Zm-164.36-.73h0c0,12.59,0,25.17,0,37.76,0,1.48-.58,3.42,1.32,4.14,1.42.54,2.41-.86,3.46-1.63,16.12-11.83,32.21-23.71,48.38-35.47,2.91-2.12,3.4-3.64.31-6.07-16.08-12.64-32-25.41-48.07-38.11-1.19-.94-2.43-2.57-4-1.86-2,.9-1.28,3.16-1.3,4.84C69.65,126.78,69.69,138.92,69.69,151.05Z"/></svg>