<svg id="Calque_1" data-name="Calque 1" xmlns="http://www.w3.org/2000/svg" viewBox="0 0 300 300"><path d="M299.41,65.15A102.71,102.71,0,0,0,298.31,51a58.49,58.49,0,0,0-13.5-29.77A57.61,57.61,0,0,0,248.48,1.62,166.23,166.23,0,0,0,224.86.26Q161.35.23,97.8.26C85.22.27,72.64-.06,60.07.74c-6.23.4-12.45,1-18.41,3C18.56,11.39,5.18,27.5,1.13,51.34-.21,59.15-.26,67.13-.26,75.07q0,74.34,0,148.67c0,3.08,0,6.15.16,9.23a143.64,143.64,0,0,0,1.22,16.47c2.1,13.18,7.7,24.61,17.43,33.9a57.58,57.58,0,0,0,32.4,15.5,167.94,167.94,0,0,0,23.73,1.36q74.43,0,148.81,0c3,0,6.07-.05,9.1-.16a143.49,143.49,0,0,0,16.2-1.2c13.38-2.09,25-7.8,34.31-17.74a57.5,57.5,0,0,0,15-30.94,139.7,139.7,0,0,0,1.49-21.9c.1-26.08,0-52.17,0-86.1C299.44,121.73,300.07,93.43,299.41,65.15ZM98,240.62c-11.45-.05-22.91,0-34.36,0-1.09,0-1.37-.28-1.37-1.36q0-58.77,0-117.55c0-1.1.32-1.36,1.38-1.36q17.25.08,34.5,0c1.1,0,1.35.33,1.35,1.4q0,29.4,0,58.83,0,29.26,0,58.56C99.49,240.37,99.12,240.62,98,240.62ZM80.37,102.5c-11.71-.13-21-9.92-20.78-22a21.32,21.32,0,1,1,20.78,22ZM238.21,240.62c-11.15-.05-22.3,0-33.45,0-1,0-1.4-.21-1.4-1.33q.07-31.17.1-62.35a36.8,36.8,0,0,0-1-9.93c-2.32-8.38-8.83-13.88-17.62-15a29.87,29.87,0,0,0-11.71.86c-8.47,2.32-13.22,8.19-15.59,16.32a27.71,27.71,0,0,0-1.08,8c0,20.6,0,41.22,0,61.83,0,1.35-.38,1.62-1.65,1.6-11.06-.05-22.13,0-33.19,0-1,0-1.49-.13-1.49-1.38q.06-58.77,0-117.54c0-1,.22-1.35,1.29-1.35q15.83.08,31.63,0c1,0,1.33.27,1.31,1.3,0,4.77,0,9.55,0,14.32v1.28a55.39,55.39,0,0,1,7.18-7.26c14.9-11.89,31.52-15.12,49.5-8.85,12.43,4.33,20.88,13.13,25.42,25.63a51.12,51.12,0,0,1,3.4,17.77q-.1,37.22,0,74.46C239.86,240.34,239.51,240.64,238.21,240.62Z"/></svg>