<svg id="Calque_1" data-name="Calque 1" xmlns="http://www.w3.org/2000/svg" viewBox="0 0 300 300"><path d="M300,143.06A143.75,143.75,0,0,0,285,81.86a146.86,146.86,0,0,0-55.74-60.37A143.87,143.87,0,0,0,195.93,6.65a142.14,142.14,0,0,0-44-6.22,121,121,0,0,0-17.35,1,154.63,154.63,0,0,0-30.32,7,143.42,143.42,0,0,0-20.71,9,146.19,146.19,0,0,0-72.18,87.8A151.09,151.09,0,0,0,6.69,127,146.07,146.07,0,0,0,6,160.77,138.72,138.72,0,0,0,12.6,192a136.27,136.27,0,0,0,12.12,27c1.18,2,2,3.84.67,6.05a12,12,0,0,0-.67,2.2q-6.51,19.17-13.08,38.31c-2.4,7-4.83,14.05-7.22,21.1-1.43,4.25-2.8,8.5-4.25,12.74-.33,1,0,1.1.85.88.29-.07.58-.17.88-.27Q17,295.21,32,290.41q14.63-4.68,29.25-9.32c5.64-1.78,11.34-3.41,16.88-5.42a7.35,7.35,0,0,1,6.47.5,134.84,134.84,0,0,0,28.64,11.3,149.75,149.75,0,0,0,30.56,5,151.66,151.66,0,0,0,22.46-.27,148,148,0,0,0,31.22-6.29,144.49,144.49,0,0,0,19.6-7.77,150.4,150.4,0,0,0,25.7-15.82,144.8,144.8,0,0,0,20.67-19.22,148,148,0,0,0,19.72-28.42,145.94,145.94,0,0,0,14.31-40.62A148.53,148.53,0,0,0,300,143.06Zm-24.1,12.43a122,122,0,0,1-20.36,58.8,120.39,120.39,0,0,1-18.08,21.26,123.74,123.74,0,0,1-64.8,31.93,124.57,124.57,0,0,1-32.44,1A121.42,121.42,0,0,1,111,261.85,118,118,0,0,1,86.86,250a4.83,4.83,0,0,0-4.55-.55c-14.34,4.62-28.73,9.14-43.1,13.71-.47.15-.94.27-1.69.49,1.18-3.43,2.24-6.6,3.31-9.77q4.11-12.16,8.24-24.3,1.59-4.69,3.23-9.39a2.94,2.94,0,0,0-.31-3,120.84,120.84,0,0,1-22.75-74.8,122.66,122.66,0,0,1,5.43-32A121.25,121.25,0,0,1,59.23,66.63,123.8,123.8,0,0,1,88.66,41.79a126.19,126.19,0,0,1,51.6-17.25,120.68,120.68,0,0,1,22.57-.17,123.8,123.8,0,0,1,27.64,5.5,121,121,0,0,1,24,10.59A123.46,123.46,0,0,1,258.7,83.7a121.5,121.5,0,0,1,17,52.11A117.59,117.59,0,0,1,275.92,155.49Z"/><path d="M227.79,183.36a39.71,39.71,0,0,1-3.33,15.27c-1.49,3.37-4.27,5.74-7.09,7.91a42,42,0,0,1-14.17,7.3,40.35,40.35,0,0,1-24-.7c-8.11-2.6-16.13-5.38-24-8.59a105.78,105.78,0,0,1-26.88-16.45,155.74,155.74,0,0,1-26.72-28.23c-4.37-5.89-8.79-11.74-12.41-18.16-4.19-7.42-7.34-15.21-8.19-23.81-.11-1.25-.15-2.52-.23-3.8a39.76,39.76,0,0,1,8-24.7,41.3,41.3,0,0,1,6.22-6.72,14.16,14.16,0,0,1,11.06-3,41.66,41.66,0,0,0,5.8.21,5.12,5.12,0,0,1,4.24,2,23.27,23.27,0,0,1,3.35,6.32c3.33,7.85,6.4,15.78,10,23.51,1.92,4.19.84,7.64-1.43,11a59.88,59.88,0,0,1-7.32,8.8c-2.59,2.57-2.9,4.1-1,7.27a102.1,102.1,0,0,0,22.94,27,94.44,94.44,0,0,0,23.26,13.9,35.5,35.5,0,0,0,4.93,2,4.08,4.08,0,0,0,4.33-1.18A137.92,137.92,0,0,0,187,166.1c1.76-2.61,3.9-3.39,6.85-2.49,5.25,1.59,10,4.29,15,6.56,5.26,2.45,10.41,5.15,15.64,7.63A5.37,5.37,0,0,1,227.79,183.36Z"/></svg>