<svg id="Communication" xmlns="http://www.w3.org/2000/svg" viewBox="0 0 300 300"><defs><style>.cls-1{fill:#1d1d1b;}</style></defs><path class="cls-1" d="M16.42,253.6a10.2,10.2,0,0,1-9.74-13.24l13.14-42.19C6.83,182,0,163,0,143,0,89.75,49.85,46.4,111.12,46.4c39.12,0,74.62,17.33,95,46.36A87.34,87.34,0,0,1,222.27,143c0,34.56-21.39,66.69-55.83,83.86a126.07,126.07,0,0,1-109.37.62L22.25,251.77A10.18,10.18,0,0,1,16.42,253.6ZM56.3,205.42a10.17,10.17,0,0,1,5,1.29,102.65,102.65,0,0,0,49.86,12.57,103.83,103.83,0,0,0,46.21-10.64c27.47-13.7,44.53-38.83,44.53-65.6a67,67,0,0,0-12.48-38.56c-16.29-23.24-46.27-37.67-78.26-37.67-50,0-90.71,34.2-90.71,76.23,0,16.73,6.36,32.63,18.4,46A10.2,10.2,0,0,1,41,198.88L35,218l15.46-10.76A10.14,10.14,0,0,1,56.3,205.42Z"/><path class="cls-1" d="M285,253.6a10.21,10.21,0,0,1-5.83-1.83L253,233.6a99.2,99.2,0,0,1-42,9.15c-20.18,0-39.18-5.73-55-16.57a10.2,10.2,0,0,1,1.23-17.54c27.46-13.7,44.52-38.83,44.52-65.6a67,67,0,0,0-12.48-38.56,10.21,10.21,0,0,1,6.87-16,102.7,102.7,0,0,1,14.82-1.07c49,0,88.93,34.83,88.93,77.65a70.18,70.18,0,0,1-15.2,43.47l9.9,31.79A10.21,10.21,0,0,1,285,253.6ZM182.54,217.12a80,80,0,0,0,28.53,5.22,77.77,77.77,0,0,0,37.8-9.53,10.2,10.2,0,0,1,10.8.54l6.69,4.66-2.71-8.68a10.24,10.24,0,0,1,2.17-9.88c9-10,13.77-21.85,13.77-34.35,0-30.54-28.78-55.57-64.87-57.16a85.82,85.82,0,0,1,7.55,35.1C222.27,171.84,207.42,199,182.54,217.12Z"/></svg>