<svg id="ES" xmlns="http://www.w3.org/2000/svg" viewBox="0 0 300 300"><defs><style>.cls-1{fill:#1d1d1b;}</style></defs><path class="cls-1" d="M207.11,81.84a11.07,11.07,0,0,1,11,11V207.11a11.07,11.07,0,0,1-11,11H92.89a11.07,11.07,0,0,1-11-11V92.89a11.07,11.07,0,0,1,11-11H207.11m0-21.48H92.89A32.52,32.52,0,0,0,60.36,92.89V207.11a32.52,32.52,0,0,0,32.53,32.53H207.11a32.52,32.52,0,0,0,32.53-32.53V92.89a32.52,32.52,0,0,0-32.53-32.53Z"/><path class="cls-1" d="M148.21,0h3.57A9.24,9.24,0,0,1,161,9.24V49.78a0,0,0,0,1,0,0H139a0,0,0,0,1,0,0V9.24A9.24,9.24,0,0,1,148.21,0Z"/><path class="cls-1" d="M102.29,0h3.57a9.24,9.24,0,0,1,9.24,9.24V49.78a0,0,0,0,1,0,0H93.05a0,0,0,0,1,0,0V9.24A9.24,9.24,0,0,1,102.29,0Z"/><path class="cls-1" d="M194.13,0h3.57a9.24,9.24,0,0,1,9.24,9.24V49.78a0,0,0,0,1,0,0H184.89a0,0,0,0,1,0,0V9.24A9.24,9.24,0,0,1,194.13,0Z"/><path class="cls-1" d="M148.21,250.22h3.57a9.24,9.24,0,0,1,9.24,9.24V300a0,0,0,0,1,0,0H139a0,0,0,0,1,0,0V259.46a9.24,9.24,0,0,1,9.24-9.24Z" transform="translate(300 550.22) rotate(180)"/><path class="cls-1" d="M194.13,250.22h3.57a9.24,9.24,0,0,1,9.24,9.24V300a0,0,0,0,1,0,0H184.89a0,0,0,0,1,0,0V259.46A9.24,9.24,0,0,1,194.13,250.22Z" transform="translate(391.84 550.22) rotate(180)"/><path class="cls-1" d="M102.29,250.22h3.57a9.24,9.24,0,0,1,9.24,9.24V300a0,0,0,0,1,0,0H93.05a0,0,0,0,1,0,0V259.46A9.24,9.24,0,0,1,102.29,250.22Z" transform="translate(208.16 550.22) rotate(180)"/><path class="cls-1" d="M273.32,125.11h3.57a9.24,9.24,0,0,1,9.24,9.24v40.54a0,0,0,0,1,0,0H264.08a0,0,0,0,1,0,0V134.35a9.24,9.24,0,0,1,9.24-9.24Z" transform="translate(425.11 -125.11) rotate(90)"/><path class="cls-1" d="M273.32,79.19h3.57a9.24,9.24,0,0,1,9.24,9.24V129a0,0,0,0,1,0,0H264.08a0,0,0,0,1,0,0V88.43A9.24,9.24,0,0,1,273.32,79.19Z" transform="translate(379.19 -171.03) rotate(90)"/><path class="cls-1" d="M273.32,171h3.57a9.24,9.24,0,0,1,9.24,9.24v40.54a0,0,0,0,1,0,0H264.08a0,0,0,0,1,0,0V180.27A9.24,9.24,0,0,1,273.32,171Z" transform="translate(471.03 -79.19) rotate(90)"/><path class="cls-1" d="M23.1,125.11h3.57a9.24,9.24,0,0,1,9.24,9.24v40.54a0,0,0,0,1,0,0H13.87a0,0,0,0,1,0,0V134.35A9.24,9.24,0,0,1,23.1,125.11Z" transform="translate(-125.11 174.89) rotate(-90)"/><path class="cls-1" d="M23.1,171h3.57a9.24,9.24,0,0,1,9.24,9.24v40.54a0,0,0,0,1,0,0H13.87a0,0,0,0,1,0,0V180.27A9.24,9.24,0,0,1,23.1,171Z" transform="translate(-171.03 220.81) rotate(-90)"/><path class="cls-1" d="M23.1,79.19h3.57a9.24,9.24,0,0,1,9.24,9.24V129a0,0,0,0,1,0,0H13.87a0,0,0,0,1,0,0V88.43A9.24,9.24,0,0,1,23.1,79.19Z" transform="translate(-79.19 128.97) rotate(-90)"/><path class="cls-1" d="M133.27,188.45a10.74,10.74,0,0,1-6.85-19L149.89,150l-23.47-19.43A10.74,10.74,0,1,1,140.12,114l33.46,27.71a10.72,10.72,0,0,1,0,16.54L140.12,186A10.73,10.73,0,0,1,133.27,188.45Z"/></svg>