<svg id="Problem_Solving" data-name="Problem Solving" xmlns="http://www.w3.org/2000/svg" viewBox="0 0 300 300"><defs><style>.cls-1{fill:#1d1d1b;}</style></defs><path class="cls-1" d="M299.36,180.35a53.53,53.53,0,0,1-53.47,53.46,52.94,52.94,0,0,1-7.37-.5v23A43.7,43.7,0,0,1,194.87,300H150.74l.53-12.23a30.7,30.7,0,1,0-61.4,0v.36L90.4,300l-46.11,0A43.7,43.7,0,0,1,.64,256.33V211.75H12.17a30.7,30.7,0,0,0,0-61.4H.64V105.77A43.7,43.7,0,0,1,44.29,62.12H67.8a54.24,54.24,0,0,1-.7-8.64,53.47,53.47,0,1,1,106.24,8.64h21.53a43.7,43.7,0,0,1,43.65,43.65v21.61a54.52,54.52,0,0,1,7.37-.5A53.54,53.54,0,0,1,299.36,180.35ZM173,277.21h21.87a20.9,20.9,0,0,0,20.87-20.88V199.57l16.49,8.26A30.22,30.22,0,0,0,245.89,211a30.69,30.69,0,1,0,0-61.38,30.36,30.36,0,0,0-13.68,3.2l-16.47,8.22V105.77a20.9,20.9,0,0,0-20.87-20.88H138.53l9.06-16.79a30.71,30.71,0,1,0-54,0l9,16.79H44.29a20.91,20.91,0,0,0-20.88,20.88v23a53.48,53.48,0,0,1,0,104.56v23a20.91,20.91,0,0,0,20.88,20.88H68.14a53.48,53.48,0,0,1,104.86,0Z"/></svg>