<svg xmlns="http://www.w3.org/2000/svg" xmlns:xlink="http://www.w3.org/1999/xlink" viewBox="0 0 100 100"><defs><style>.cls-1{fill:#fff;}.cls-2{mask:url(#mask);}.cls-3{fill:#c73b3c;}</style><mask id="mask" x="0" y="0" width="100" height="100" maskUnits="userSpaceOnUse"><circle class="cls-1" cx="50" cy="50" r="50"/></mask></defs><g id="Calque_2" data-name="Calque 2"><g class="cls-2"><rect class="cls-3" width="100" height="50"/><rect class="cls-1" y="50" width="100" height="50"/><path class="cls-1" d="M53,34.33c.31.78.47,1.56.78,2.66a9.87,9.87,0,0,1-1.88-1.41c-.63-.63-1.1-.47-1.72,0a4.73,4.73,0,0,1-1.73,1.1,5.85,5.85,0,0,1,.63-2.35c.16-.47.16-.94-.47-1.1a22.51,22.51,0,0,0-2-1.41v-.16h2.51c.47,0,.78-.16.94-.78a7.37,7.37,0,0,1,.94-2.35,12,12,0,0,1,.63,2.19,1.09,1.09,0,0,0,1.25.94,11.57,11.57,0,0,1,2.35.16,21.19,21.19,0,0,1-2,1.41A.76.76,0,0,0,53,34.33Z"/><path class="cls-1" d="M66.14,34.48a10.23,10.23,0,0,1,.63,2.35c-.63-.47-1.41-.94-2-1.41-.47-.31-.78-.31-1.09,0-.63.47-1.41.94-2.2,1.57.32-1.1.47-1.88.79-2.66a.87.87,0,0,0-.47-1.1c-.63-.47-1.26-.94-2-1.57a12.42,12.42,0,0,1,2.35-.16,1.09,1.09,0,0,0,1.25-.94,20.29,20.29,0,0,1,.79-2.35c.31.94.62,1.73.78,2.35.16.79.63.94,1.25.94a11.71,11.71,0,0,1,2.36.16,24,24,0,0,1-2,1.41C66,33.54,65.83,33.86,66.14,34.48Z"/><path class="cls-1" d="M70.22,22.41c.16.63.31,1.1.47,1.73a.15.15,0,0,1-.16.15l-1.88-1.41a.88.88,0,0,0-1.41,0l-1.88,1.41a7.56,7.56,0,0,1,.47-2c.31-1.26.63-1.1-.63-1.88-.47-.32-1.09-.79-1.56-1.1a.56.56,0,0,1-.16-.31H66a1,1,0,0,0,1.09-.79,20.29,20.29,0,0,1,.79-2.35,14.4,14.4,0,0,1,.94,2.35c.16.63.47.79,1.1.79a14.91,14.91,0,0,1,2.5.15,9.3,9.3,0,0,1-1.56,1.1C69.91,21.16,69.91,21.16,70.22,22.41Z"/><path class="cls-1" d="M59.56,14.42a9.35,9.35,0,0,1,.63,2.19c-.63-.47-1.41-.94-2-1.41-.47-.47-.78-.47-1.25,0L55,16.61l-.16-.15c.16-.63.31-1.1.47-1.73.47-1.56.47-1.25-.63-2a5.17,5.17,0,0,1-1.41-1.26h2.2a1.22,1.22,0,0,0,1.41-.94,20.09,20.09,0,0,1,.78-2.35,21.23,21.23,0,0,1,.78,2.51c.16.63.47.78,1.1.78h2.35v.16c-.62.47-1.09.78-1.72,1.25C59.4,13.32,59.25,13.64,59.56,14.42Z"/><path class="cls-1" d="M48.9,22.1a8.89,8.89,0,0,1,.63,2.19,13,13,0,0,1-2.19-1.41c-.47-.31-.79-.31-1.1,0-.63.47-1.26.94-2.2,1.57a7.43,7.43,0,0,1,.63-2.19c.31-.79.16-1.26-.47-1.57a11.15,11.15,0,0,1-1.72-1.25v-.32h2.19c.78,0,1.1-.15,1.25-.94a22.4,22.4,0,0,1,.79-2.35,20.09,20.09,0,0,1,.78,2.35c.16.79.63.94,1.26.94H51.1a7.38,7.38,0,0,1-1.88,1.41A1.44,1.44,0,0,0,48.9,22.1Z"/><path class="cls-1" d="M50.78,43.1A19.35,19.35,0,0,1,31.35,12.7,18.81,18.81,0,0,1,50.63,5.17C40.91,8.78,35.58,15.52,36.36,26,37,34.8,42.32,40.28,50.78,43.1Z"/></g></g></svg>